# xmcd
#
# Track frame offsets: 
#        150
#        21285
#        42552
#        63847
#
# Disc length: 1168 seconds
#
# Revision: 2
# Processed by: cddbd v1.5.2PL0 Copyright (c) Steve Scherf et al.
# Submitted via: ExactAudioCopy v0.99pb5
#
DISCID=2f048e04
DTITLE=2Pac - Dear Mama (Single)
DYEAR=1999
DGENRE=Rap
TTITLE0=Dear Mama (Radio Version)
TTITLE1=Do For Love (feat. Eric Williams)
TTITLE2=I Wonder if Heaven Got a Ghetto (Soulpower Hip Hop Album Mix)
TTITLE3=Dear Mama (Moe Z. Mix)
EXTD=
EXTT0=
EXTT1=
EXTT2=
EXTT3=
PLAYORDER=
